# xmcd
#
# Track frame offsets:
#	150
#	16806
#	32220
#	46191
#	57690
#	74697
#	89971
#	107331
#	128809
#	142945
#	154540
#	165301
#	180515
#	202276
#	217876
#	228462
#	245041
#
# Disc length: 3436 seconds
#
# Revision: 227901161
# Processed by: cddbd v1.5.2PL0 Copyright (c) Steve Scherf et al.
# Submitted via: EZCDAudioConverter 8.3.0.1
#
DISCID=f10d6a11
DTITLE=Various Artist - Dylan, Cash, And The Nashville Cats: A New Music City
DTITLE=
DYEAR=2015
DGENRE=Country
TTITLE0=Bob Dylan and Johnny Cash - Girl From The North Country
TTITLE1=Jerry Jeff Walker - Driftin' Way Of Life
TTITLE2=George Harrison - Behind That Locked Door
TTITLE3=Ringo Starr - Beaucoups Of Blues
TTITLE4=The Steve Miller Band - Going To The Country
TTITLE5=Joan Baez - The Night They Drove Old Dixie Down
TTITLE6=Steve Goodman - City Of New Orleans
TTITLE7=Eric Andersen - Blue River
TTITLE8=Neil Young - Heart Of Gold
TTITLE9=Bob Dylan - If Not For You
TTITLE10=J.J. Cale - Crazy Mama
TTITLE11=Steve Young - Seven Bridges Road
TTITLE12=The Nitty Gritty Dirt Band - Will The Circle Be Unbroken
TTITLE13=The Earl Scruggs Revue and Linda Ronstadt - Silver Wings
TTITLE14=Leon Russell - A Six Pack To Go
TTITLE15=Paul Mccartney and Wings - Sally G
TTITLE16=Derek and The Dominos With Johnny Cash and Carl Perkins - Matchbox [Live]
EXTD=
EXTT0=
EXTT1=
EXTT2=
EXTT3=
EXTT4=
EXTT5=
EXTT6=
EXTT7=
EXTT8=
EXTT9=
EXTT10=
EXTT11=
EXTT12=
EXTT13=
EXTT14=
EXTT15=
EXTT16=
PLAYORDER=
